<?xml version="1.0" encoding="utf-8"?>
<!-- Generator: Adobe Illustrator 16.0.0, SVG Export Plug-In . SVG Version: 6.00 Build 0)  -->
<!DOCTYPE svg PUBLIC "-//W3C//DTD SVG 1.1//EN" "http://www.w3.org/Graphics/SVG/1.1/DTD/svg11.dtd">
<svg version="1.1" id="Layer_1" xmlns="http://www.w3.org/2000/svg" xmlns:xlink="http://www.w3.org/1999/xlink" x="0px" y="0px"
	 width="192.664px" height="192.667px" viewBox="0 0 192.664 192.667" enable-background="new 0 0 192.664 192.667"
	 xml:space="preserve">
<g>
	<path fill="#FFFFFF" d="M20.638,38.717l0.879-2.858c-0.493,0,3.873-6.708,3.382-6.708C-7.054,60.076-4.284,101.483,11.084,131.249
		c10.715,20.76,30.331,40.195,53.656,50.673c10.805,4.847,27.347,9.299,44.715,8.939c37.14-0.774,63.178-18.33,77.873-46.944
		l0.865-2.236c-12.967,13.071-34.103,22.148-50.675,23.845C68.555,172.591-2.392,110.812,20.638,38.717z"/>
	<path fill="#FFFFFF" d="M112.18,49.272c9.106,14.651,26.498,27.529,53.657,21.746c6.854-1.459,22.387-13.146,25.085-19.332
		c-23.281,15.843-37.726,10.539-44.567,8.525c-1.507-0.431-4.991-1.997-8.241-3.949c-7.212-4.336-10.775-6.321-16.393-14.488
		c-3.084-4.483-6.173-11.61-7.187-15.694c-1.671-6.75-1.206-17.138,1.967-26.08c-10.536,9.401-12.161,27.573-8.63,39.584
		C108.321,41.105,110.826,47.081,112.18,49.272z"/>
	<path fill="#FFFFFF" d="M119.633,126.772c36.454,4.877,63.642-10.447,73.031-34.278c-10.731,11.389-28.854,19.498-46.204,19.376
		c-38.794-0.254-82.393-35.01-77.5-83.463c0.415-4.173,2.083-10.719,6.557-19.202c-12.864,16.223-20.673,29.59-18.481,51.992
		C60.028,91.973,89.11,122.69,119.633,126.772z"/>
</g>
</svg>
