<?xml version="1.0" encoding="utf-8"?>
<!-- Generator: Adobe Illustrator 16.0.0, SVG Export Plug-In . SVG Version: 6.00 Build 0)  -->
<!DOCTYPE svg PUBLIC "-//W3C//DTD SVG 1.1//EN" "http://www.w3.org/Graphics/SVG/1.1/DTD/svg11.dtd">
<svg version="1.1" id="Layer_1" xmlns="http://www.w3.org/2000/svg" xmlns:xlink="http://www.w3.org/1999/xlink" x="0px" y="0px"
	 width="912.712px" height="593.715px" viewBox="0 0 912.712 593.715" enable-background="new 0 0 912.712 593.715"
	 xml:space="preserve">
<g id="Mac_Book">
	<path fill="#121A23" d="M791.768,33.674c0-18.092-14.666-32.755-32.759-32.755H153.472c-18.093,0-32.757,14.663-32.757,32.755
		v445.342c0,18.091,14.665,32.758,32.757,32.758h605.537c18.093,0,32.759-14.667,32.759-32.758V33.674z M456.939,12.794
		c3.039,0,5.503,2.464,5.503,5.501c0,3.039-2.464,5.505-5.503,5.505s-5.5-2.466-5.5-5.505
		C451.439,15.258,453.9,12.794,456.939,12.794z M770.153,460.093H141.479V31.683l629.134-0.458L770.153,460.093z"/>
	<g>
		<path fill="#F4F4F4" d="M758.09,3c16.409,0,29.759,13.348,29.759,29.755v445.342c0,16.408-13.35,29.757-29.759,29.757H152.553
			c-16.408,0-29.757-13.349-29.757-29.757V32.755C122.796,16.348,136.145,3,152.553,3H758.09 M758.09,0H152.553
			c-18.093,0-32.757,14.662-32.757,32.755v445.342c0,18.091,14.664,32.757,32.757,32.757H758.09
			c18.093,0,32.759-14.666,32.759-32.757V32.755C790.849,14.662,776.183,0,758.09,0L758.09,0z"/>
	</g>
	<path fill="#D3D1CD" d="M3.428,558.794l0.002,3.085c0,18.091,15.336,31.836,33.427,31.836h839.819
		c18.089,0,32.381-13.745,32.381-31.836l-0.002-3.085H3.428z"/>
	<polygon fill="#A09F9C" points="909.43,559.142 4.096,559.142 121.26,478.972 792.271,478.972 	"/>
</g>
</svg>
