<?xml version="1.0" encoding="utf-8"?>
<!-- Generator: Adobe Illustrator 16.0.0, SVG Export Plug-In . SVG Version: 6.00 Build 0)  -->
<!DOCTYPE svg PUBLIC "-//W3C//DTD SVG 1.1//EN" "http://www.w3.org/Graphics/SVG/1.1/DTD/svg11.dtd">
<svg version="1.1" xmlns="http://www.w3.org/2000/svg" xmlns:xlink="http://www.w3.org/1999/xlink" x="0px" y="0px" width="646px"
	 height="520px" viewBox="0 0 646 520" enable-background="new 0 0 646 520" xml:space="preserve">
<g id="Layer_1">
	<g>
		<rect id="Line_5_" x="449.206" y="269.641" fill="#FFFFFF" width="195.198" height="2.736"/>
		<rect id="Line_4_" x="0.184" y="410.458" fill="#FFFFFF" width="644.22" height="2.736"/>
		<rect id="Line_1_" x="0.184" y="269.641" fill="#FFFFFF" width="195.197" height="2.736"/>
		<polygon id="Star_9_" fill="#FFFFFF" points="321.294,490.421 326.173,500.305 337.082,501.889 329.187,509.585 331.05,520.449 
			321.294,515.32 311.536,520.449 313.4,509.585 305.506,501.889 316.416,500.305 		"/>
		<g>
			<path fill="#FFFFFF" d="M121.933,438.988c-0.118,0.223-0.288,0.334-0.51,0.334c-0.171,0-0.391-0.121-0.66-0.363
				s-0.633-0.511-1.093-0.805c-0.459-0.295-1.034-0.566-1.723-0.814c-0.689-0.249-1.539-0.373-2.55-0.373
				c-1.011,0-1.9,0.144-2.668,0.432s-1.412,0.681-1.931,1.178c-0.519,0.497-0.913,1.073-1.181,1.728
				c-0.27,0.654-0.404,1.342-0.404,2.062c0,0.942,0.2,1.721,0.599,2.336c0.4,0.615,0.927,1.139,1.583,1.57
				c0.655,0.433,1.399,0.795,2.231,1.09c0.832,0.295,1.687,0.586,2.565,0.874c0.878,0.288,1.733,0.605,2.565,0.952
				c0.832,0.347,1.576,0.782,2.231,1.305c0.655,0.524,1.183,1.169,1.583,1.935c0.399,0.766,0.6,1.718,0.6,2.856
				c0,1.165-0.2,2.261-0.599,3.288c-0.399,1.027-0.979,1.921-1.737,2.68c-0.759,0.759-1.688,1.357-2.788,1.796
				c-1.099,0.438-2.355,0.658-3.769,0.658c-1.833,0-3.41-0.324-4.731-0.972c-1.322-0.648-2.48-1.535-3.475-2.66l0.55-0.864
				c0.157-0.196,0.34-0.294,0.549-0.294c0.118,0,0.269,0.078,0.452,0.235c0.184,0.157,0.406,0.35,0.668,0.579
				c0.262,0.229,0.577,0.478,0.944,0.746c0.367,0.269,0.793,0.517,1.278,0.746c0.484,0.229,1.042,0.422,1.671,0.579
				c0.629,0.156,1.343,0.235,2.143,0.235c1.101,0,2.084-0.167,2.949-0.501c0.865-0.333,1.596-0.788,2.192-1.364
				c0.596-0.575,1.052-1.26,1.366-2.052c0.314-0.791,0.472-1.639,0.472-2.542c0-0.981-0.2-1.789-0.6-2.425
				c-0.4-0.635-0.927-1.164-1.583-1.59c-0.655-0.425-1.399-0.782-2.231-1.07c-0.832-0.287-1.688-0.569-2.565-0.844
				s-1.733-0.582-2.565-0.923c-0.832-0.34-1.576-0.775-2.231-1.306c-0.655-0.529-1.183-1.19-1.583-1.982
				c-0.4-0.792-0.6-1.783-0.6-2.975c0-0.929,0.177-1.825,0.531-2.689c0.354-0.863,0.872-1.626,1.553-2.287
				c0.682-0.66,1.523-1.19,2.526-1.59c1.002-0.399,2.146-0.599,3.431-0.599c1.441,0,2.735,0.229,3.882,0.687
				c1.146,0.459,2.191,1.159,3.134,2.101L121.933,438.988z"/>
			<path fill="#FFFFFF" d="M145.648,435.611v1.669h-14.626v11.229h12.172v1.63h-12.172v11.582h14.626v1.669H129v-27.779H145.648z"/>
			<path fill="#FFFFFF" d="M153.618,435.681c0.104,0.046,0.216,0.147,0.333,0.304l17.983,24.069
				c-0.04-0.394-0.059-0.772-0.059-1.139v-23.304h1.767v27.779h-0.962c-0.301,0-0.543-0.131-0.727-0.393l-18.061-24.107
				c0.039,0.393,0.059,0.766,0.059,1.119v23.381h-1.747v-27.779h0.981C153.369,435.611,153.513,435.635,153.618,435.681z"/>
			<path fill="#FFFFFF" d="M184.636,463.391h-2.022v-27.779h2.022V463.391z"/>
			<path fill="#FFFFFF" d="M218.402,449.491c0,2.146-0.321,4.094-0.962,5.841c-0.642,1.747-1.544,3.239-2.709,4.476
				c-1.165,1.237-2.559,2.192-4.182,2.866c-1.623,0.675-3.422,1.012-5.398,1.012c-1.95,0-3.737-0.337-5.359-1.012
				c-1.623-0.674-3.017-1.629-4.182-2.866c-1.165-1.236-2.071-2.729-2.719-4.476c-0.647-1.747-0.972-3.694-0.972-5.841
				c0-2.133,0.324-4.073,0.972-5.82c0.648-1.747,1.554-3.239,2.719-4.477c1.165-1.236,2.559-2.195,4.182-2.876
				c1.623-0.681,3.409-1.021,5.359-1.021c1.976,0,3.776,0.337,5.398,1.011c1.623,0.675,3.017,1.633,4.182,2.876
				c1.165,1.244,2.068,2.739,2.709,4.486C218.082,445.418,218.402,447.358,218.402,449.491z M216.321,449.491
				c0-1.937-0.269-3.678-0.805-5.222c-0.537-1.544-1.293-2.854-2.268-3.927c-0.975-1.072-2.15-1.895-3.524-2.464
				c-1.375-0.569-2.899-0.854-4.574-0.854c-1.649,0-3.158,0.284-4.525,0.854c-1.368,0.569-2.546,1.392-3.534,2.464
				c-0.988,1.073-1.754,2.383-2.297,3.927s-0.814,3.285-0.814,5.222c0,1.95,0.271,3.694,0.814,5.232s1.309,2.843,2.297,3.916
				s2.166,1.892,3.534,2.454c1.367,0.562,2.876,0.844,4.525,0.844c1.675,0,3.2-0.281,4.574-0.844
				c1.374-0.562,2.549-1.381,3.524-2.454c0.975-1.073,1.73-2.378,2.268-3.916C216.053,453.186,216.321,451.441,216.321,449.491z"/>
			<path fill="#FFFFFF" d="M227.53,450.826v12.564h-2.002v-27.779h7.087c3.206,0,5.601,0.619,7.185,1.855
				c1.583,1.237,2.375,3.053,2.375,5.448c0,1.06-0.184,2.028-0.55,2.905c-0.367,0.877-0.893,1.646-1.581,2.307
				c-0.687,0.661-1.515,1.204-2.483,1.63c-0.968,0.425-2.061,0.703-3.278,0.834c0.314,0.196,0.595,0.458,0.844,0.785l9.561,12.015
				h-1.747c-0.209,0-0.39-0.039-0.54-0.118c-0.15-0.078-0.298-0.209-0.441-0.393l-8.894-11.269c-0.223-0.287-0.461-0.49-0.716-0.608
				s-0.651-0.177-1.188-0.177H227.53z M227.53,449.334h4.83c1.23,0,2.333-0.146,3.308-0.441c0.975-0.294,1.799-0.717,2.474-1.267
				c0.674-0.549,1.188-1.21,1.541-1.982c0.353-0.772,0.53-1.643,0.53-2.611c0-1.976-0.648-3.441-1.943-4.397
				c-1.296-0.955-3.18-1.433-5.654-1.433h-5.085V449.334z"/>
			<path fill="#FFFFFF" d="M253.502,435.611h1.669c0.379,0,0.622,0.177,0.727,0.53l7.008,22.832
				c0.079,0.262,0.147,0.543,0.206,0.844c0.059,0.302,0.121,0.615,0.187,0.942c0.065-0.327,0.131-0.641,0.196-0.942
				c0.065-0.301,0.144-0.582,0.236-0.844l7.853-22.832c0.052-0.144,0.144-0.268,0.275-0.373c0.13-0.104,0.288-0.157,0.471-0.157
				h0.55c0.183,0,0.333,0.05,0.451,0.147c0.118,0.099,0.209,0.226,0.275,0.383l7.853,22.832c0.092,0.262,0.173,0.537,0.246,0.824
				c0.072,0.288,0.141,0.596,0.206,0.923c0.065-0.314,0.125-0.618,0.177-0.913c0.052-0.294,0.118-0.572,0.196-0.834l7.008-22.832
				c0.04-0.144,0.128-0.268,0.265-0.373c0.138-0.104,0.298-0.157,0.481-0.157h1.531l-8.736,27.779h-1.806l-8.206-24.107
				c-0.105-0.314-0.196-0.648-0.275-1.002c-0.079,0.354-0.17,0.688-0.275,1.002l-8.226,24.107h-1.787L253.502,435.611z"/>
			<path fill="#FFFFFF" d="M312.692,435.611v1.669h-14.626v11.229h12.172v1.63h-12.172v11.582h14.626v1.669h-16.648v-27.779H312.692
				z"/>
			<path fill="#FFFFFF" d="M319.249,463.391v-27.779h7.99c1.583,0,2.954,0.157,4.112,0.472s2.117,0.775,2.877,1.384
				c0.758,0.608,1.324,1.352,1.697,2.229s0.561,1.872,0.561,2.984c0,0.732-0.129,1.439-0.383,2.12
				c-0.256,0.681-0.625,1.309-1.109,1.884c-0.484,0.576-1.076,1.077-1.777,1.502c-0.699,0.426-1.502,0.75-2.404,0.972
				c2.186,0.328,3.867,1.054,5.045,2.18s1.768,2.611,1.768,4.456c0,1.178-0.211,2.238-0.629,3.181
				c-0.42,0.942-1.027,1.74-1.826,2.395c-0.799,0.655-1.779,1.155-2.943,1.502c-1.166,0.348-2.488,0.521-3.966,0.521H319.249z
				 M321.251,448.608h6.027c1.283,0,2.378-0.164,3.288-0.491c0.91-0.327,1.656-0.759,2.238-1.296
				c0.582-0.536,1.012-1.145,1.285-1.825c0.275-0.681,0.414-1.381,0.414-2.101c0-1.872-0.594-3.289-1.777-4.251
				c-1.186-0.962-3.014-1.442-5.487-1.442h-5.988V448.608z M321.251,450.08v11.701h6.969c2.447,0,4.293-0.527,5.537-1.581
				c1.242-1.053,1.863-2.535,1.863-4.446c0-0.877-0.166-1.665-0.5-2.365s-0.814-1.296-1.443-1.787
				c-0.627-0.49-1.4-0.866-2.316-1.129c-0.916-0.262-1.956-0.393-3.121-0.393H321.251z"/>
			<path fill="#FFFFFF" d="M375.375,449.491c0,2.146-0.32,4.077-0.962,5.792c-0.642,1.714-1.544,3.174-2.709,4.377
				c-1.165,1.205-2.559,2.127-4.182,2.769s-3.423,0.962-5.398,0.962h-10.13v-27.779h10.13c1.976,0,3.775,0.321,5.398,0.963
				c1.623,0.641,3.017,1.563,4.182,2.768s2.067,2.663,2.709,4.378S375.375,447.358,375.375,449.491z M373.293,449.491
				c0-1.937-0.269-3.664-0.805-5.183c-0.537-1.518-1.293-2.801-2.268-3.848s-2.149-1.846-3.523-2.396
				c-1.375-0.55-2.899-0.824-4.574-0.824h-8.108v24.52h8.108c1.675,0,3.199-0.274,4.574-0.824c1.374-0.55,2.549-1.348,3.523-2.395
				s1.73-2.33,2.268-3.849C373.025,453.176,373.293,451.441,373.293,449.491z"/>
			<path fill="#FFFFFF" d="M398.481,435.611v1.669h-14.626v11.229h12.172v1.63h-12.172v11.582h14.626v1.669h-16.647v-27.779H398.481
				z"/>
			<path fill="#FFFFFF" d="M418.486,438.988c-0.119,0.223-0.289,0.334-0.512,0.334c-0.17,0-0.391-0.121-0.658-0.363
				c-0.27-0.242-0.635-0.511-1.094-0.805c-0.459-0.295-1.035-0.566-1.723-0.814c-0.689-0.249-1.541-0.373-2.551-0.373
				c-1.012,0-1.9,0.144-2.67,0.432c-0.768,0.288-1.41,0.681-1.93,1.178c-0.518,0.497-0.912,1.073-1.182,1.728
				s-0.404,1.342-0.404,2.062c0,0.942,0.201,1.721,0.6,2.336c0.4,0.615,0.928,1.139,1.584,1.57c0.654,0.433,1.398,0.795,2.23,1.09
				s1.688,0.586,2.566,0.874c0.877,0.288,1.732,0.605,2.564,0.952s1.576,0.782,2.232,1.305c0.654,0.524,1.182,1.169,1.582,1.935
				s0.6,1.718,0.6,2.856c0,1.165-0.199,2.261-0.6,3.288c-0.398,1.027-0.979,1.921-1.736,2.68c-0.76,0.759-1.689,1.357-2.787,1.796
				c-1.1,0.438-2.357,0.658-3.77,0.658c-1.834,0-3.41-0.324-4.732-0.972c-1.322-0.648-2.48-1.535-3.475-2.66l0.551-0.864
				c0.156-0.196,0.34-0.294,0.549-0.294c0.117,0,0.27,0.078,0.453,0.235s0.406,0.35,0.668,0.579
				c0.262,0.229,0.576,0.478,0.943,0.746s0.793,0.517,1.277,0.746c0.484,0.229,1.043,0.422,1.672,0.579
				c0.629,0.156,1.344,0.235,2.143,0.235c1.102,0,2.084-0.167,2.949-0.501c0.865-0.333,1.596-0.788,2.191-1.364
				c0.596-0.575,1.051-1.26,1.367-2.052c0.314-0.791,0.471-1.639,0.471-2.542c0-0.981-0.199-1.789-0.6-2.425
				c-0.4-0.635-0.928-1.164-1.582-1.59c-0.656-0.425-1.4-0.782-2.232-1.07c-0.832-0.287-1.688-0.569-2.564-0.844
				c-0.879-0.274-1.734-0.582-2.566-0.923c-0.832-0.34-1.576-0.775-2.23-1.306c-0.656-0.529-1.184-1.19-1.584-1.982
				c-0.398-0.792-0.598-1.783-0.598-2.975c0-0.929,0.176-1.825,0.529-2.689c0.355-0.863,0.871-1.626,1.553-2.287
				c0.682-0.66,1.525-1.19,2.527-1.59s2.146-0.599,3.43-0.599c1.441,0,2.736,0.229,3.883,0.687c1.146,0.459,2.191,1.159,3.135,2.101
				L418.486,438.988z"/>
			<path fill="#FFFFFF" d="M428.301,463.391h-2.021v-27.779h2.021V463.391z"/>
			<path fill="#FFFFFF" d="M449.229,462.075c0.955,0,1.826-0.049,2.611-0.147c0.785-0.098,1.514-0.245,2.188-0.441
				s1.316-0.435,1.924-0.717c0.609-0.281,1.221-0.599,1.836-0.952v-7.479h-5.34c-0.145,0-0.264-0.046-0.363-0.138
				c-0.098-0.091-0.146-0.196-0.146-0.313v-1.1h7.676v9.875c-0.693,0.484-1.414,0.916-2.16,1.295
				c-0.746,0.38-1.543,0.697-2.395,0.952c-0.852,0.256-1.768,0.452-2.748,0.59c-0.982,0.137-2.055,0.206-3.221,0.206
				c-2.002,0-3.83-0.337-5.486-1.012c-1.656-0.674-3.076-1.629-4.26-2.866c-1.186-1.236-2.104-2.731-2.758-4.485
				s-0.982-3.704-0.982-5.851s0.328-4.093,0.982-5.84c0.654-1.748,1.582-3.239,2.787-4.477c1.203-1.236,2.666-2.191,4.387-2.866
				c1.723-0.674,3.648-1.011,5.783-1.011c1.059,0,2.037,0.072,2.934,0.216c0.896,0.145,1.73,0.356,2.504,0.638
				c0.771,0.282,1.492,0.629,2.16,1.041c0.666,0.412,1.309,0.887,1.924,1.423l-0.531,0.864c-0.117,0.196-0.281,0.294-0.49,0.294
				c-0.117,0-0.229-0.025-0.334-0.078c-0.195-0.079-0.48-0.262-0.854-0.55s-0.877-0.589-1.512-0.903
				c-0.635-0.313-1.43-0.595-2.385-0.844c-0.957-0.249-2.115-0.373-3.477-0.373c-1.805,0-3.436,0.288-4.887,0.863
				c-1.453,0.576-2.693,1.401-3.721,2.474c-1.027,1.073-1.82,2.383-2.375,3.927c-0.557,1.544-0.834,3.278-0.834,5.202
				c0,1.963,0.281,3.724,0.844,5.281s1.352,2.876,2.365,3.956c1.014,1.079,2.23,1.907,3.65,2.483
				C445.945,461.787,447.514,462.075,449.229,462.075z"/>
			<path fill="#FFFFFF" d="M468.094,435.681c0.105,0.046,0.217,0.147,0.334,0.304l17.982,24.069
				c-0.039-0.394-0.059-0.772-0.059-1.139v-23.304h1.768v27.779h-0.963c-0.301,0-0.543-0.131-0.727-0.393l-18.061-24.107
				c0.039,0.393,0.059,0.766,0.059,1.119v23.381h-1.746v-27.779h0.98C467.846,435.611,467.99,435.635,468.094,435.681z"/>
			<path fill="#FFFFFF" d="M513.012,435.611v1.669h-14.627v11.229h12.172v1.63h-12.172v11.582h14.627v1.669h-16.648v-27.779H513.012
				z"/>
			<path fill="#FFFFFF" d="M522.158,450.826v12.564h-2.002v-27.779h7.088c3.205,0,5.602,0.619,7.184,1.855
				c1.584,1.237,2.377,3.053,2.377,5.448c0,1.06-0.184,2.028-0.551,2.905c-0.365,0.877-0.893,1.646-1.58,2.307
				s-1.516,1.204-2.482,1.63c-0.969,0.425-2.062,0.703-3.279,0.834c0.314,0.196,0.596,0.458,0.844,0.785l9.561,12.015h-1.746
				c-0.211,0-0.391-0.039-0.541-0.118c-0.15-0.078-0.297-0.209-0.441-0.393l-8.893-11.269c-0.223-0.287-0.461-0.49-0.717-0.608
				s-0.65-0.177-1.188-0.177H522.158z M522.158,449.334h4.83c1.23,0,2.332-0.146,3.309-0.441c0.975-0.294,1.799-0.717,2.473-1.267
				c0.674-0.549,1.188-1.21,1.541-1.982s0.531-1.643,0.531-2.611c0-1.976-0.648-3.441-1.945-4.397
				c-1.295-0.955-3.18-1.433-5.652-1.433h-5.086V449.334z"/>
		</g>
		<g>
			<path fill="#FFFFFF" d="M116.185,352.931c1.092,0.468,2.496,1.716,3.042,2.809c-6.708,7.8-14.431,14.977-21.139,14.977
				c-4.134,0-6.63-2.185-7.02-5.305c-3.9,3.198-7.957,5.305-11.232,5.305c-6.552,0-8.971-5.538-5.538-11.545l11.388-19.656
				c3.432-5.929,9.516-9.36,13.884-9.36c5.305,0,8.814,4.758,8.502,8.19h4.602L99.57,361.277c-1.872,3.198-0.858,4.446,0.937,4.446
				c3.588,0,9.282-5.383,15.132-12.169L116.185,352.931z M81.318,361.277c-1.872,3.198-0.858,4.446,0.936,4.446
				c3.354,0,8.19-3.666,13.104-11.389l6.318-11.076c3.978-7.333-4.68-9.282-9.048-1.716L81.318,361.277z"/>
			<path fill="#FFFFFF" d="M112.673,364.163l5.07-2.651c0,0,1.092,2.964,3.822,2.964c7.722,0,6.006-15.133,9.204-23.558
				c-2.886,3.822-6.942,9.517-11.544,14.821c-1.17-0.78-2.34-1.794-3.042-2.809c7.332-8.58,14.665-19.188,18.019-23.791l6.084,3.276
				c-4.992,10.375-4.446,22.23-7.021,29.953c3.198-2.184,6.787-5.304,9.75-8.814l0.546-0.624c1.17,0.312,2.574,1.561,3.042,2.809
				c-6.084,7.098-14.274,13.65-22.542,14.742c-0.078,0-0.156,0.078-0.234,0.078c-0.78,0.078-1.482,0.156-2.262,0.156
				C114.155,370.716,112.673,364.163,112.673,364.163z"/>
			<path fill="#FFFFFF" d="M181.861,352.931c1.092,0.468,2.496,1.716,3.042,2.809c-6.708,7.8-14.431,14.977-21.139,14.977
				c-6.552,0-8.97-5.538-5.538-11.545l10.53-18.33c3.51-6.007-2.028-8.034-14.508,7.644l-12.325,21.451h-8.19l32.371-56.162h8.112
				l-12.949,22.543c4.056-4.212,7.8-6.162,11.311-6.162c4.524,0,7.878,4.446,4.368,10.608l-11.701,20.515
				c-1.872,3.198-0.858,4.446,0.937,4.446c3.588,0,9.282-5.383,15.132-12.169L181.861,352.931z"/>
			<path fill="#FFFFFF" d="M201.906,352.931c1.092,0.468,2.496,1.716,3.042,2.809c-6.708,7.8-14.431,14.977-21.139,14.977
				c-6.552,0-8.971-5.538-5.538-11.545l26.209-45.397h8.112l-27.301,47.504c-1.872,3.198-0.858,4.446,0.936,4.446
				c3.588,0,9.282-5.383,15.133-12.169L201.906,352.931z"/>
			<path fill="#FFFFFF" d="M209.081,354.646l-0.78,1.404c-3.744,6.553-0.78,9.673,4.212,9.673c5.694,0,13.183-5.383,19.033-12.169
				l0.546-0.624c1.092,0.468,2.496,1.716,3.042,2.809c-6.708,7.8-15.835,14.977-25.039,14.977c-9.595,0-13.963-7.956-8.893-16.615
				l8.502-14.586c3.432-5.929,8.658-9.36,15.21-9.36c6.63,0,10.843,5.616,6.475,13.104l-1.17,2.028
				C224.135,355.817,214.307,356.831,209.081,354.646z M211.421,350.669c3.042,1.092,8.268,1.248,12.168-5.382l1.17-2.028
				c4.836-8.425-3.432-9.751-8.112-1.716L211.421,350.669z"/>
			<path fill="#FFFFFF" d="M248.705,355.895l14.353-24.961h8.112L248.938,369c6.396-2.73,12.09-7.723,18.799-15.445l0.546-0.624
				c1.092,0.468,2.496,1.716,3.042,2.809c-8.892,10.296-17.161,16.068-25.585,18.721l-6.24,10.687
				c-5.85,9.984-17.785,8.346-17.785,0.546c0-6.085,6.864-10.608,17.863-13.885l4.446-7.645c-3.666,3.276-8.112,6.553-12.013,6.553
				c-5.382,0-7.254-5.07-3.12-12.247l15.913-27.535h8.112l-15.834,27.613c-1.014,1.717-3.042,4.759-1.014,5.616
				C237.628,364.865,242.464,361.667,248.705,355.895z M232.714,383.82l3.744-6.553c-6.24,2.418-8.19,4.836-8.19,6.942
				C228.268,386.395,230.998,386.862,232.714,383.82z"/>
			<path fill="#FFFFFF" d="M328.732,352.931c1.092,0.468,2.496,1.716,3.042,2.809c-6.708,7.8-14.431,14.977-21.139,14.977
				c-6.552,0-8.97-5.538-5.538-11.545l10.53-18.33c3.51-6.007-2.028-8.034-14.508,7.644l-12.325,21.451h-8.19l32.371-56.162h8.112
				l-12.949,22.543c4.056-4.212,7.8-6.162,11.311-6.162c4.524,0,7.878,4.446,4.368,10.608l-11.701,20.515
				c-1.872,3.198-0.858,4.446,0.937,4.446c3.588,0,9.282-5.383,15.132-12.169L328.732,352.931z"/>
			<path fill="#FFFFFF" d="M348.777,352.931c1.092,0.468,2.496,1.716,3.042,2.809c-6.708,7.8-14.431,14.977-21.139,14.977
				c-6.552,0-8.971-5.538-5.538-11.545l16.302-28.237h8.112l-17.395,30.344c-1.872,3.198-0.858,4.446,0.936,4.446
				c3.588,0,9.282-5.383,15.133-12.169L348.777,352.931z M350.571,317.361c2.652,0,4.758,2.106,4.758,4.759
				c0,2.651-2.106,4.68-4.758,4.68s-4.68-2.028-4.68-4.68C345.891,319.468,347.919,317.361,350.571,317.361z"/>
			<path fill="#FFFFFF" d="M356.42,327.034h7.332l7.645-13.261h8.112l-7.645,13.261h6.708l-2.34,3.899h-6.63l-17.395,30.344
				c-1.872,3.198-0.858,4.446,0.936,4.446c3.588,0,9.282-5.383,15.133-12.169l0.546-0.624c1.092,0.468,2.496,1.716,3.042,2.809
				c-6.708,7.8-14.431,14.977-21.139,14.977c-6.552,0-8.971-5.538-5.538-11.545l16.302-28.237h-7.41L356.42,327.034z"/>
			<path fill="#FFFFFF" d="M375.217,356.051c-3.744,6.553-0.78,9.673,4.212,9.673c5.694,0,13.183-5.383,19.033-12.169l0.546-0.624
				c1.092,0.468,2.496,1.716,3.042,2.809c-6.708,7.8-15.834,14.977-25.039,14.977c-9.594,0-13.962-7.956-8.893-16.615l8.502-14.586
				c3.432-5.929,8.658-9.36,15.21-9.36c6.63,0,10.842,5.616,6.474,13.104l-1.17,2.028h-6.63l1.17-2.028
				c4.836-8.425-3.432-9.751-8.112-1.716L375.217,356.051z"/>
			<path fill="#FFFFFF" d="M437.306,352.931c1.093,0.468,2.496,1.716,3.042,2.809c-6.708,7.8-14.43,14.977-21.139,14.977
				c-6.553,0-8.971-5.538-5.538-11.545l10.53-18.33c3.51-6.007-2.027-8.034-14.508,7.644l-12.325,21.451h-8.19l32.371-56.162h8.113
				l-12.949,22.543c4.057-4.212,7.801-6.162,11.311-6.162c4.524,0,7.879,4.446,4.368,10.608l-11.7,20.515
				c-1.872,3.198-0.858,4.446,0.936,4.446c3.588,0,9.283-5.383,15.133-12.169L437.306,352.931z"/>
			<path fill="#FFFFFF" d="M443.7,356.051c-3.744,6.553-0.78,9.673,4.212,9.673c5.694,0,13.183-5.383,19.033-12.169l0.545-0.624
				c1.093,0.468,2.496,1.716,3.043,2.809c-6.709,7.8-15.835,14.977-25.039,14.977c-9.595,0-13.963-7.956-8.893-16.615l8.502-14.586
				c3.433-5.929,8.658-9.36,15.211-9.36c6.631,0,10.843,5.616,6.475,13.104l-1.17,2.028h-6.631l1.17-2.028
				c4.836-8.425-3.432-9.751-8.111-1.716L443.7,356.051z"/>
			<path fill="#FFFFFF" d="M487.458,363.617c-10.921,13.807-30.499,7.332-20.28-10.219l3.51-6.006l3.979-6.942
				c4.68-8.112,9.516-10.608,15.756-10.608c7.645,0,12.169,8.034,7.254,16.537l-7.644,13.183c4.056-0.078,8.58-2.028,12.246-6.007
				l0.546-0.624c1.092,0.468,2.496,1.716,3.043,2.809c-4.135,4.914-11.779,7.878-16.615,7.878H487.458z M485.118,353.477h0.39
				l5.928-10.14c4.915-8.425-2.886-12.247-8.58-2.574l-3.9,6.63l-6.162,10.687c-4.836,8.425,4.447,9.673,8.269,3.12l0.078-0.156
				c-0.468-0.779-0.78-1.716-0.78-2.729C480.359,355.661,482.466,353.477,485.118,353.477z"/>
			<path fill="#FFFFFF" d="M509.219,356.051c-3.744,6.553-0.78,9.673,4.212,9.673c5.694,0,13.183-5.383,19.032-12.169l0.547-0.624
				c1.092,0.468,2.496,1.716,3.042,2.809c-6.708,7.8-15.835,14.977-25.039,14.977c-9.595,0-13.963-7.956-8.893-16.615l8.503-14.586
				c3.432-5.929,8.658-9.36,15.21-9.36c6.63,0,10.843,5.616,6.475,13.104l-1.171,2.028h-6.63l1.171-2.028
				c4.836-8.425-3.433-9.751-8.113-1.716L509.219,356.051z"/>
			<path fill="#FFFFFF" d="M523.18,369.936l32.371-56.162h8.112l-11.544,20.047c8.268-7.566,20.592-3.276,13.025,9.672l-2.184,3.744
				c-3.822,6.631-9.828,10.375-15.522,9.673v3.354c0,3.666,1.716,5.46,3.51,5.46c3.589,0,9.282-5.383,15.133-12.169l0.546-0.624
				c1.092,0.468,2.496,1.716,3.042,2.809c-6.708,7.8-14.431,14.977-21.139,14.977c-6.552,0-7.878-3.511-7.878-10.452v-6.475
				l-9.283,16.146H523.18z M558.437,340.763c2.886-4.914-3.51-8.503-12.87,4.524l-2.34,4.056c1.794,5.304,8.893,2.34,11.311-1.872
				L558.437,340.763z"/>
		</g>
		<g>
			<path fill="#FFFFFF" d="M296,129.412V68h44v75h52V16.449C372.309,5.807,349.768-0.237,325.813-0.237
				c-36.102,0-68.998,13.724-93.757,36.237h27.934L296,129.412z"/>
			<path fill="#FFFFFF" d="M238.523,99.351c-1.81-5.32-3.592-11.086-5.348-17.286c-1.654,6.304-3.359,12.134-5.115,17.505
				c-1.758,5.375-3.41,10.007-4.96,13.933L202.33,175h61.689l-20.77-61.811C241.906,109.264,240.33,104.675,238.523,99.351z"/>
			<path fill="#FFFFFF" d="M340,181v62.535L347.41,261h-40.609c-4.549,0-8.293-0.785-11.238-2.904
				c-2.945-2.116-4.986-4.556-6.123-7.864L276.111,211h-69.793c24.393,40.491,68.779,67.576,119.495,67.576
				c23.954,0,46.495-6.044,66.187-16.687V181H340z"/>
			<path fill="#FFFFFF" d="M465.221,139.17c0-32.179-10.908-61.806-29.221-85.399v170.798
				C454.312,200.976,465.221,171.349,465.221,139.17z"/>
		</g>
	</g>
</g>
<g id="Layer_2">
</g>
</svg>
