<?xml version="1.0" encoding="utf-8"?>
<!-- Generator: Adobe Illustrator 16.0.0, SVG Export Plug-In . SVG Version: 6.00 Build 0)  -->
<!DOCTYPE svg PUBLIC "-//W3C//DTD SVG 1.1//EN" "http://www.w3.org/Graphics/SVG/1.1/DTD/svg11.dtd">
<svg version="1.1" id="Layer_1" xmlns="http://www.w3.org/2000/svg" xmlns:xlink="http://www.w3.org/1999/xlink" x="0px" y="0px"
	 width="245.712px" height="262.339px" viewBox="0 0 245.712 262.339" enable-background="new 0 0 245.712 262.339"
	 xml:space="preserve">
<g>
	<path fill="#FFFFFF" d="M87.373,119.958V63h41v70h49V14.787c-19-9.908-39.853-15.53-62.155-15.53C81.607-0.743,50.446,12,27.395,33
		h26.007L87.373,119.958z"/>
	<path fill="#FFFFFF" d="M33.416,91.97c-1.685-4.953-3.344-10.321-4.979-16.094c-1.54,5.869-3.128,11.297-4.763,16.297
		c-1.637,5.004-3.175,9.116-4.618,12.771L-0.281,162h57.435l-19.337-57.346C36.565,100.998,35.098,96.927,33.416,91.97z"/>
	<path fill="#FFFFFF" d="M128.373,168v58.209L134.792,242H96.983c-4.235,0-7.721-0.496-10.463-2.468
		c-2.742-1.971-4.643-4.084-5.701-7.165L68.411,196H3.432c22.71,37,64.568,62.874,111.786,62.874
		c22.302,0,43.155-5.667,62.155-15.576V168H128.373z"/>
	<path fill="#FFFFFF" d="M244.579,129.043c0-29.959-10.206-57.542-27.206-79.509v159.018
		C234.373,186.585,244.579,159.002,244.579,129.043z"/>
</g>
</svg>
