<?xml version="1.0" encoding="utf-8"?>
<!-- Generator: Adobe Illustrator 18.1.1, SVG Export Plug-In . SVG Version: 6.00 Build 0)  -->
<svg version="1.1" id="Layer_1" xmlns="http://www.w3.org/2000/svg" xmlns:xlink="http://www.w3.org/1999/xlink" x="0px" y="0px"
	 width="960px" height="560px" viewBox="0 0 960 560" enable-background="new 0 0 960 560" xml:space="preserve">
<path fill="none" d="M544.628,267h-8.883l-4.969,26h6.871c5.746,0,10.012-1.2,12.679-3.253c2.625-2.021,4.445-5.642,5.411-10.606
	c0.876-4.514,0.565-7.856-0.898-9.478C553.783,268.493,551.154,267,544.628,267z"/>
<path fill="none" d="M423.625,267h-8.883l-4.969,26h6.871c5.746,0,10.012-1.2,12.679-3.253c2.625-2.021,4.445-5.642,5.411-10.606
	c0.876-4.514,0.565-7.856-0.898-9.478C432.78,268.493,430.151,267,423.625,267z"/>
<path fill="#FFFFFF" d="M506.041,306.359c0,0,6.435-33.084,6.435-33.084c1.452-7.475,0.244-12.868-3.589-16.391
	c-3.712-3.409-10.015-4.884-19.268-4.884h-11.144l3.189-16.575c0.12-0.618-0.042-1.215-0.443-1.701
	c-0.401-0.486-0.998-0.724-1.628-0.724h-15.381c-1.01,0-1.878,0.589-2.071,1.58l-6.834,35.096
	c-0.622-3.956-2.152-7.223-4.603-10.028c-4.511-5.164-11.648-7.648-21.211-7.648h-29.812c-1.01,0-1.878,0.549-2.07,1.541
	l-13.832,71.083c-0.12,0.618,0.042,1.19,0.443,1.676c0.401,0.486,0.997,0.7,1.628,0.7h15.503c1.01,0,1.878-0.755,2.07-1.746
	L406.771,308h11.54c6.057,0,11.143-0.59,15.116-1.884c4.062-1.321,7.799-3.527,11.094-6.611c2.661-2.446,4.862-5.168,6.555-8.122
	l-2.764,14.229c-0.12,0.618,0.042,1.196,0.443,1.682c0.401,0.486,0.998,0.706,1.628,0.706h15.381c1.01,0,1.878-0.83,2.071-1.821
	L475.425,267h10.554c4.497,0,5.814,1.076,6.171,1.461c0.326,0.351,1.002,1.679,0.244,5.581l-6.119,31.533
	c-0.12,0.618,0.042,1.215,0.443,1.701c0.401,0.486,0.998,0.724,1.628,0.724h15.625C504.98,308,505.848,307.35,506.041,306.359z
	 M449.402,290.083c-1.61,2.88-3.712,5.514-6.31,7.902c-3.096,2.897-6.535,4.95-10.319,6.18c-3.784,1.232-8.604,1.835-14.463,1.835
	h-13.279l-3.677,19h-15.503l13.832-71h29.812c8.968,0,15.51,2.242,19.623,6.949c4.112,4.707,5.35,11.222,3.71,19.658
	C452.153,284.083,451.01,287.205,449.402,290.083z M488.346,306l6.119-31.477c0.696-3.582,0.441-6.145-0.769-7.448
	c-1.209-1.303-3.782-2.075-7.717-2.075h-12.293l-7.923,41h-15.381l13.832-71h15.381l-3.677,19h13.702
	c8.621,0,14.568,1.393,17.841,4.399c3.273,3.008,4.253,7.814,2.945,14.551L503.97,306H488.346z"/>
<path fill="#FFFFFF" d="M423.625,265h-10.622l-5.789,30h9.43c6.25,0,10.906-1.281,13.966-3.636
	c3.059-2.356,5.123-6.339,6.195-11.847c1.026-5.289,0.559-9.051-1.402-11.226C433.44,266.117,429.515,265,423.625,265z
	 M434.734,279.062c-0.966,4.964-2.787,8.664-5.411,10.685C426.656,291.8,422.39,293,416.644,293h-6.871l4.969-26h8.883
	c6.526,0,9.156,1.453,10.211,2.623C435.299,271.246,435.61,274.548,434.734,279.062z"/>
<path fill="#FFFFFF" d="M544.628,265h-10.622l-5.789,30h9.43c6.25,0,10.906-1.281,13.966-3.636
	c3.059-2.356,5.123-6.339,6.195-11.847c1.026-5.289,0.559-9.051-1.402-11.226C554.443,266.117,550.518,265,544.628,265z
	 M555.737,279.062c-0.966,4.964-2.787,8.664-5.411,10.685c-2.667,2.053-6.933,3.253-12.679,3.253h-6.871l4.969-26h8.883
	c6.526,0,9.155,1.453,10.211,2.623C556.303,271.246,556.613,274.548,555.737,279.062z"/>
<path fill="#FFFFFF" d="M571.815,259.616c-4.511-5.164-11.648-7.616-21.211-7.616h-29.812c-1.01,0-1.878,0.549-2.071,1.541
	l-13.832,71.083c-0.12,0.618,0.042,1.19,0.443,1.676c0.401,0.486,0.998,0.7,1.628,0.7h15.503c1.01,0,1.878-0.755,2.07-1.746
	L527.879,308h11.54c6.057,0,11.142-0.59,15.115-1.884c4.062-1.321,7.799-3.527,11.094-6.611c2.748-2.526,5.01-5.345,6.723-8.41
	c1.711-3.062,2.94-6.388,3.655-10.066C577.77,271.962,576.36,264.818,571.815,259.616z M573.831,280.552
	c-0.675,3.475-1.818,6.653-3.426,9.531c-1.61,2.88-3.712,5.514-6.31,7.902c-3.096,2.897-6.534,4.95-10.319,6.18
	c-3.784,1.232-8.604,1.835-14.463,1.835h-13.279l-3.677,19h-15.503l13.832-71h29.812c8.968,0,15.51,2.242,19.623,6.949
	C574.234,265.657,575.472,272.116,573.831,280.552z"/>
<g>
</g>
<g>
</g>
<g>
</g>
<g>
</g>
<g>
</g>
<g>
</g>
<g>
</g>
<g>
</g>
<g>
</g>
<g>
</g>
<g>
</g>
<g>
</g>
<g>
</g>
<g>
</g>
<g>
</g>
</svg>
