<?xml version="1.0" encoding="utf-8"?>
<!-- Generator: Adobe Illustrator 16.0.0, SVG Export Plug-In . SVG Version: 6.00 Build 0)  -->
<!DOCTYPE svg PUBLIC "-//W3C//DTD SVG 1.1//EN" "http://www.w3.org/Graphics/SVG/1.1/DTD/svg11.dtd">
<svg version="1.1" id="Layer_1" xmlns="http://www.w3.org/2000/svg" xmlns:xlink="http://www.w3.org/1999/xlink" x="0px" y="0px"
	 width="230.88px" height="190.531px" viewBox="0 0 230.88 190.531" enable-background="new 0 0 230.88 190.531"
	 xml:space="preserve">
<g id="Layer_61">
	<g>
		<path fill="#FFFFFF" d="M78.339,140.336H75.03H50.435v12.349h101.003v-11.511l-16.702-0.838H78.339L78.339,140.336z
			 M93.107,147.913h-34.8v-2.304h34.8V147.913z"/>
		<path fill="#FFFFFF" d="M0,190.531h45.072v-75.816H0V190.531z M23.107,187.256c-1.435,0-2.599-1.169-2.599-2.599
			c0-1.44,1.169-2.602,2.599-2.602c1.433,0,2.598,1.161,2.598,2.602C25.71,186.087,24.541,187.256,23.107,187.256z M23.543,117.856
			c0.598,0,1.083,0.478,1.083,1.076c0,0.607-0.489,1.091-1.083,1.091c-0.599,0-1.088-0.492-1.088-1.091
			C22.451,118.334,22.94,117.856,23.543,117.856z M17.055,121.491h12.956v1.044H17.055V121.491z M7.232,126.263l30.608-0.015v52.081
			c-11.708,0.065-24.803,0.111-30.608,0.065V126.263z"/>
		<polygon fill="#FFFFFF" points="80.775,10.592 204.397,10.592 204.397,51.844 214.998,51.844 214.998,0 70.179,0 70.179,53.924 
			80.775,53.924 		"/>
		<polygon fill="#FFFFFF" points="141.144,103.686 160.763,103.686 160.763,98.753 154.677,98.753 154.677,92.781 160.763,92.781 
			160.763,79.117 141.144,79.117 		"/>
		<path fill="#FFFFFF" d="M166.329,56.675v96.839h64.551V56.675H166.329z M199.967,148.655c-1.717,0-3.106-1.399-3.106-3.115
			c0-1.722,1.39-3.11,3.106-3.11c1.721,0,3.11,1.389,3.11,3.11C203.077,147.256,201.688,148.655,199.967,148.655z M221.554,137.451
			h-45.889V66.005h45.889V137.451z"/>
		<polygon fill="#FFFFFF" points="27.342,68.912 126.045,68.912 126.045,128.08 50.435,128.08 50.435,136.785 134.745,136.785 
			134.745,60.217 18.643,60.217 18.643,109.607 27.342,109.607 		"/>
	</g>
</g>
</svg>
