<?xml version="1.0" encoding="utf-8"?>
<!-- Generator: Adobe Illustrator 16.0.0, SVG Export Plug-In . SVG Version: 6.00 Build 0)  -->
<!DOCTYPE svg PUBLIC "-//W3C//DTD SVG 1.1//EN" "http://www.w3.org/Graphics/SVG/1.1/DTD/svg11.dtd">
<svg version="1.1" id="Layer_1" xmlns="http://www.w3.org/2000/svg" xmlns:xlink="http://www.w3.org/1999/xlink" x="0px" y="0px"
	 width="194.149px" height="194px" viewBox="0 0 194.149 194" enable-background="new 0 0 194.149 194" xml:space="preserve">
<g>
	<path fill="#FFFFFF" d="M13.724,96.543c0,32.782,19.054,61.115,46.682,74.537L20.897,62.84
		C16.303,73.139,13.724,84.536,13.724,96.543z M152.459,92.365c0-10.24-3.68-17.324-6.829-22.841
		c-4.198-6.825-8.133-12.599-8.133-19.426c0-7.613,5.771-14.697,13.906-14.697c0.369,0,0.717,0.043,1.072,0.066
		c-14.73-13.501-34.368-21.746-55.929-21.746c-28.935,0-54.391,14.848-69.2,37.327c1.945,0.063,3.779,0.104,5.332,0.104
		c8.66,0,22.074-1.055,22.074-1.055c4.464-0.261,4.988,6.299,0.528,6.827c0,0-4.488,0.525-9.475,0.785l30.156,89.715L94.09,93.066
		L81.187,57.711c-4.464-0.26-8.688-0.785-8.688-0.785c-4.46-0.265-3.94-7.088,0.526-6.827c0,0,13.675,1.055,21.813,1.055
		c8.66,0,22.074-1.055,22.074-1.055c4.465-0.261,4.992,6.299,0.53,6.827c0,0-4.495,0.525-9.479,0.785l29.931,89.03l8.261-27.601
		C150.354,108.378,152.459,99.453,152.459,92.365z M98.002,103.789l-24.853,72.208c7.423,2.182,15.271,3.375,23.397,3.375
		c9.647,0,18.897-1.666,27.506-4.694c-0.217-0.355-0.424-0.732-0.593-1.143L98.002,103.789z M169.227,56.812
		c0.355,2.638,0.558,5.465,0.558,8.517c0,8.399-1.576,17.849-6.302,29.662l-25.296,73.14c24.627-14.357,41.184-41.03,41.184-71.587
		C179.37,82.144,175.689,68.605,169.227,56.812z"/>
	<g>
		<path fill="#FFFFFF" d="M0,96.543c0,53.239,43.31,96.55,96.547,96.55c53.24,0,96.548-43.311,96.548-96.55
			C193.095,43.308,149.787,0,96.547,0C43.31,0,0,43.308,0,96.543z M4.43,96.543c0-50.793,41.325-92.117,92.117-92.117
			S188.67,45.75,188.67,96.543c0,50.797-41.331,92.123-92.123,92.123S4.43,147.34,4.43,96.543z"/>
	</g>
</g>
</svg>
